<svg width="731" height="614" viewBox="0 0 731 614" fill="none" xmlns="http://www.w3.org/2000/svg">
<g clip-path="url(#clip0_80416_383)">
<mask id="mask0_80416_383" style="mask-type:luminance" maskUnits="userSpaceOnUse" x="0" y="0" width="731" height="614">
<path d="M731 0H0V614H731V0Z" fill="white"/>
</mask>
<g mask="url(#mask0_80416_383)">
<path d="M628.02 323.017C628.02 470.911 511.166 591.042 366.567 591.042C221.968 591.042 105.115 470.911 105.115 323.017C105.115 175.123 221.968 54.993 366.567 54.993C511.166 54.993 628.02 174.59 628.02 323.017Z" fill="white"/>
<path d="M687.78 326.221C685.646 282.974 673.907 242.93 652.031 206.09C603.475 124.402 540.513 37.3739 441.801 8.54258C399.115 -3.73742 356.429 -1.60177 315.344 14.9495C285.463 27.2295 257.717 43.7808 231.039 59.7982C224.102 64.0695 217.166 68.3408 210.229 72.6121L209.696 73.146C183.55 88.6295 156.338 104.647 136.596 131.343C101.379 177.793 80.57 219.438 71.4992 261.617C64.0291 296.322 65.6298 329.424 68.2977 359.857C75.2342 443.148 134.995 509.353 192.621 563.278C222.501 591.576 260.385 608.127 305.206 612.398C315.877 613.466 327.082 614 338.288 614C364.966 614 393.246 611.33 425.26 604.923C470.614 596.381 504.763 584.101 533.043 566.482C562.39 548.329 589.069 528.04 612.546 505.616C632.822 486.395 653.631 466.106 667.504 441.012C680.844 416.452 687.78 384.951 687.78 344.908C688.314 339.035 687.78 332.628 687.78 326.221Z" fill="white"/>
<path d="M669.105 344.908C669.105 374.807 665.37 406.308 651.497 431.936C638.691 454.894 618.949 474.115 600.274 492.268C576.796 514.158 551.185 533.913 523.972 550.464C493.558 569.685 457.809 579.83 422.593 586.237C384.709 593.177 346.291 596.915 307.874 593.177C269.456 589.44 234.774 576.092 205.96 549.397C151.002 498.141 93.3758 435.673 87.5065 357.722C84.8386 326.221 83.2379 296.322 90.7079 264.821C100.846 219.438 124.857 178.327 152.603 141.487C170.744 117.461 195.823 102.511 220.901 87.5617C254.516 67.8069 287.064 45.9165 322.814 31.5008C360.164 16.5513 397.515 14.4156 436.466 25.6278C528.774 52.3234 589.069 136.148 636.023 214.633C656.299 249.337 667.504 286.177 669.105 326.221C669.105 332.628 669.105 339.035 669.105 344.908ZM366.033 573.957C411.387 571.287 456.208 557.939 491.958 538.184C504.23 531.243 516.502 523.235 527.707 514.158C574.662 476.784 604.009 412.181 615.747 355.052C618.415 342.772 620.016 329.958 619.482 317.144C617.348 285.643 609.344 254.676 597.606 225.311C576.796 172.988 540.513 135.08 491.424 107.85C467.413 95.0365 441.801 89.1634 415.123 86.4939C358.563 80.6208 296.135 89.6974 242.777 110.52C196.356 128.139 166.476 162.31 150.469 208.226C132.327 260.55 128.058 317.678 140.331 371.603C152.069 423.927 177.681 477.852 213.964 517.362C218.233 522.167 223.035 526.972 227.837 531.243C264.12 564.88 315.344 576.626 366.033 573.957Z" fill="#F8AE27"/>
<path d="M386.309 104.647C390.044 104.647 393.779 105.181 397.514 105.181C430.596 107.317 460.477 119.597 488.756 136.682C508.498 148.962 526.64 162.843 542.114 180.463C561.322 202.353 574.662 227.981 584.8 255.21C596.539 285.643 601.341 317.144 598.673 349.179C595.471 385.485 581.598 418.588 558.121 446.885C538.912 470.911 515.968 492.802 489.29 508.819C460.477 526.438 428.995 533.913 395.914 538.184C357.496 542.99 316.944 539.252 282.262 521.633C244.912 502.946 219.3 471.445 200.091 435.673C197.957 431.402 195.289 426.596 193.155 422.325C177.147 389.757 165.942 356.12 164.875 320.348C163.808 288.313 163.808 255.21 173.946 224.243C180.349 203.955 192.087 186.336 208.095 170.852C220.901 158.572 235.307 147.894 250.247 138.283C263.587 129.741 279.594 119.063 295.068 113.723C323.881 104.113 355.362 103.045 386.309 104.647ZM571.46 350.781C571.46 344.374 570.927 337.967 569.326 331.56C561.322 293.118 546.916 256.812 526.64 222.642C512.233 198.616 493.558 177.793 470.614 160.174C448.204 143.089 420.458 136.682 392.712 132.944C344.157 126.537 294.001 152.165 256.117 180.463C230.505 199.683 207.561 221.04 197.957 252.541C188.886 282.974 184.084 315.543 188.886 347.577C194.222 380.146 211.296 410.045 230.505 436.741C242.244 452.758 257.184 468.776 276.393 475.183C302.004 483.725 327.616 492.268 353.761 497.073C409.787 507.217 465.812 486.929 512.233 456.496C546.916 433.537 571.46 392.426 571.46 350.781Z" fill="#F1A026"/>
<path d="M369.235 469.843C345.224 468.776 321.747 465.572 300.937 460.233C232.639 443.148 212.897 345.976 226.77 287.779C236.374 247.736 254.516 208.76 291.866 187.403C323.881 169.25 361.765 160.174 398.582 162.843C416.19 163.911 438.066 166.581 453.54 175.123C469.547 183.666 483.42 199.683 495.159 213.565C542.647 268.558 567.725 348.645 521.304 412.181C488.222 458.097 427.395 471.979 369.235 469.843ZM505.297 324.085C502.095 285.643 482.887 247.736 455.141 223.71C439.667 210.362 422.593 198.616 402.85 193.276C355.362 181.53 295.601 214.099 269.99 253.075C257.184 272.296 247.046 292.584 246.512 316.61C245.979 343.84 255.049 367.866 271.057 389.756C290.266 415.918 315.877 435.673 348.425 439.944C372.436 443.148 397.514 441.546 420.992 436.207C442.868 430.868 467.413 422.859 482.353 405.24C501.028 381.748 507.431 352.916 505.297 324.085Z" fill="#F89831"/>
<path d="M474.35 320.882C475.95 348.111 466.88 375.875 444.469 393.494C409.787 421.257 352.161 419.122 315.344 395.096C291.333 379.612 281.728 341.704 284.93 315.543C288.665 282.974 310.542 253.075 340.955 240.261C374.571 225.845 411.388 226.379 440.734 250.405C461.01 266.957 473.282 294.186 474.35 320.882Z" fill="#FEC025"/>
<path d="M635.49 477.852C636.023 476.25 636.023 474.115 636.023 471.979V471.445C636.557 471.445 636.557 471.445 637.09 471.445V479.454C636.557 478.92 636.557 478.386 636.023 478.386C636.023 478.386 636.023 477.852 635.49 477.852Z" fill="white"/>
</g>
<path d="M709.657 423.393L703.254 396.697C702.72 394.562 701.653 392.426 700.586 390.824C698.985 389.223 697.918 387.621 695.784 386.553C695.784 386.553 695.25 386.553 695.25 386.019C693.65 384.951 691.515 384.417 689.381 384.417C688.847 384.417 688.314 384.417 687.78 384.417C687.247 384.417 686.179 384.417 685.112 384.417C685.112 382.816 685.112 380.68 685.112 379.078H692.582C700.586 379.078 706.989 373.739 708.056 366.264C708.056 365.197 708.59 364.129 708.59 363.061V337.967C708.59 335.831 708.056 333.696 707.523 332.094C706.989 329.958 705.388 328.357 703.787 326.755C702.187 325.153 700.586 324.085 698.452 323.551C696.851 323.017 694.717 322.484 692.582 322.484H685.112V311.271C685.112 302.195 678.176 295.254 669.105 295.254H641.893C636.023 295.254 630.154 298.457 626.952 303.797C625.885 305.398 624.285 307 622.684 308.068C617.348 310.737 614.147 316.61 614.147 323.017V323.551C609.344 324.085 605.609 327.289 602.941 331.026C596.539 325.687 588.535 321.95 579.998 319.28C591.203 309.67 598.673 295.788 600.807 279.237C603.475 255.21 598.673 234.388 585.867 219.972C574.662 207.158 559.188 200.217 540.513 200.217C538.912 200.217 537.312 200.217 535.711 200.217C534.11 200.217 531.976 200.751 530.375 200.751V182.064C530.375 177.793 528.774 173.522 525.573 170.852C522.371 167.649 518.636 166.047 514.368 166.047H474.35C470.081 166.047 466.346 167.649 463.144 170.852C459.943 173.522 458.342 177.793 458.342 182.064V202.887C456.741 202.353 454.607 201.819 452.473 201.819H411.921C409.787 201.819 408.186 202.353 406.052 202.887C405.518 202.887 404.985 203.421 404.451 203.421C404.451 203.421 403.917 203.421 403.917 203.955C403.384 203.955 403.384 204.489 402.85 204.489L402.317 205.023C401.783 205.023 401.783 205.557 401.783 205.557L401.25 206.09C400.716 206.09 400.716 206.624 400.716 206.624C400.182 207.158 400.182 207.158 399.649 207.692C399.115 207.158 399.115 207.158 398.582 206.624C395.38 203.421 391.645 201.819 386.843 201.819H347.358C346.291 201.819 345.224 201.819 344.157 202.353V182.598C344.157 180.463 343.623 178.327 343.09 176.725C342.556 174.59 340.955 172.988 339.355 171.386C337.754 169.784 336.153 168.717 334.019 167.649C331.885 167.115 330.284 166.581 328.15 166.581H288.131C283.863 166.581 280.128 168.183 276.926 171.386C273.725 174.59 272.124 178.327 272.124 182.598V187.404C257.717 177.793 240.109 172.988 222.501 172.988C216.098 172.988 209.162 173.522 202.759 175.124C165.409 183.666 139.797 213.565 139.263 250.939C138.73 270.694 144.599 288.313 155.271 302.729C154.737 302.195 154.204 302.195 153.67 302.195C153.136 301.661 152.603 301.661 152.069 301.661C151.536 301.127 150.469 301.127 149.935 300.593C149.401 300.059 148.868 300.059 148.334 300.059C147.801 299.525 146.733 299.525 146.2 298.991C145.666 298.457 145.133 298.457 144.599 298.457C144.066 297.924 142.998 297.924 142.465 297.924C141.931 297.924 141.398 297.39 140.864 297.39C139.263 293.652 138.73 293.652 138.196 293.652C137.663 293.652 137.129 293.118 136.596 293.118C136.062 293.118 134.995 292.584 134.461 292.584C133.928 292.584 133.394 292.05 132.86 292.05C132.327 292.05 131.26 291.517 130.726 291.517C130.193 291.517 129.659 290.983 129.125 290.983C128.592 290.983 127.525 290.449 126.991 290.449C126.458 290.449 125.924 289.915 125.39 289.915C124.857 289.915 123.79 289.381 123.256 289.381C122.723 289.381 122.189 289.381 121.655 288.847C121.122 288.847 120.055 288.313 118.987 288.313C118.454 288.313 117.92 288.313 117.387 287.779C116.853 287.779 115.786 287.779 114.719 287.245C114.185 287.245 113.652 287.245 113.118 287.245C112.051 287.245 111.517 287.245 110.45 287.245C109.917 287.245 109.383 287.245 108.85 287.245C107.782 287.245 106.715 287.245 106.182 287.245C105.648 287.245 105.115 287.245 104.581 287.245C103.514 287.245 101.913 287.245 100.846 287.245C100.312 287.245 100.312 287.245 100.312 287.245C98.7116 287.245 97.6444 287.245 96.0437 287.245C57.6262 288.313 32.0145 309.67 30.4138 341.17C30.4138 342.238 30.4138 342.772 30.4138 343.84C30.4138 356.654 34.1488 366.264 39.4846 373.739C38.951 374.273 38.951 374.273 38.951 374.807L23.4773 405.24C19.7422 412.715 21.8766 421.257 28.813 426.063C29.8802 427.13 31.4809 427.664 32.5481 428.732C33.0817 429.266 34.1488 429.8 34.6824 430.334C35.216 430.868 35.7495 430.868 36.2831 431.402C36.8167 431.936 37.8839 432.47 38.4174 433.004C38.951 433.537 39.4846 433.537 40.0182 434.071C40.5517 434.605 41.6189 434.605 42.1525 435.139C42.686 435.673 43.2196 435.673 43.7532 436.207C44.2868 436.741 45.3539 436.741 45.8875 437.275C46.4211 437.809 46.9547 437.809 47.4882 438.343C48.0218 437.809 49.089 438.343 49.6225 438.877C50.1561 439.41 51.2233 439.41 51.7568 439.944C52.2904 440.478 53.3576 440.478 53.8912 440.478C54.4247 441.012 55.4919 441.012 56.0255 441.546C56.559 441.546 57.0926 442.08 57.6262 442.08C58.1598 442.614 59.2269 442.614 59.7605 442.614C60.8276 443.148 61.3612 443.148 62.4284 443.148C62.962 443.148 64.0291 443.682 64.5627 443.682C65.6298 444.216 66.1634 444.216 67.2306 444.216C67.7641 444.216 68.8313 444.75 69.3649 444.75C70.9656 445.284 72.0328 445.284 73.0999 445.817C73.6335 445.817 73.6335 445.817 73.6335 445.817C81.6371 447.419 89.6408 448.487 97.6444 448.487C102.447 448.487 107.249 447.953 112.051 447.419C113.652 447.419 115.252 446.885 116.853 446.885C132.86 444.216 146.2 437.275 155.271 427.664C155.804 428.732 156.871 429.8 157.939 430.868C167.543 442.614 180.882 449.021 196.89 449.021C199.558 449.021 201.692 449.021 204.36 448.487C209.162 447.953 213.964 446.885 218.233 444.75C220.901 446.351 223.569 447.419 226.77 447.419H266.788C270.523 447.419 274.258 445.817 276.926 443.682C279.594 446.351 283.329 447.419 287.598 447.419H327.616C331.885 447.419 335.62 445.817 338.821 442.614C339.355 442.08 339.888 441.012 340.422 440.478C340.955 441.012 341.489 442.08 342.023 442.614C343.623 444.216 345.224 445.284 347.358 446.351C349.493 447.419 351.627 447.419 353.761 447.419H393.246C399.115 447.419 404.451 444.216 407.119 439.41C420.992 445.817 435.398 449.021 450.872 449.021C454.607 449.021 458.342 449.021 462.611 448.487C464.212 448.487 465.279 447.953 466.346 447.953C482.353 445.817 495.693 437.809 504.23 426.597C515.435 439.41 531.976 447.419 551.718 448.487C553.852 448.487 555.987 448.487 558.121 448.487C581.065 448.487 600.274 441.012 614.68 425.529C615.747 424.461 616.814 422.859 617.348 421.257C625.352 438.343 642.426 448.487 664.303 448.487H665.37C666.971 448.487 668.571 448.487 670.172 448.487C681.377 447.953 690.982 445.817 699.519 442.08C703.254 440.478 705.922 437.809 707.523 434.071C710.19 431.402 710.724 427.13 709.657 423.393ZM510.099 333.162C509.566 332.094 508.498 331.56 507.431 330.492H512.767C511.7 331.56 510.633 332.094 510.099 333.162ZM403.384 328.357C404.985 329.424 406.585 329.958 408.186 330.492C405.518 332.628 403.384 335.297 401.25 337.967C399.649 335.297 398.048 333.162 395.914 331.026C398.582 329.958 401.25 329.424 403.384 328.357ZM344.157 316.077C344.69 316.61 344.69 316.61 345.224 317.144C344.69 317.144 344.69 317.144 344.157 317.678V316.077ZM169.677 317.144C169.677 316.077 169.677 315.543 169.144 315.009C170.211 315.543 171.278 316.61 172.345 317.144H169.677ZM265.721 248.27L272.658 240.261V263.753L265.188 255.744C264.12 254.677 262.52 253.609 260.919 252.541C263.053 251.473 264.12 249.871 265.721 248.27ZM215.031 243.464C216.632 239.727 220.367 237.057 224.102 237.057C225.703 237.057 226.77 237.591 227.837 237.591C232.639 239.727 236.908 242.93 240.109 247.202C241.71 248.804 243.311 250.939 245.445 252.007C243.844 252.541 242.777 253.609 241.177 255.21C237.442 258.948 233.173 262.151 227.837 263.753C226.236 264.287 225.169 264.287 223.569 264.287C219.3 264.287 215.565 261.617 213.964 257.346C212.897 252.541 212.897 247.736 215.031 243.464Z" fill="white"/>
<path d="M45.8875 391.892L35.7496 412.181C35.216 412.715 35.7496 413.249 36.2832 413.783C45.354 420.19 54.9583 424.995 64.5627 428.198" stroke="#9A89AA" stroke-width="2"/>
<path d="M64.5627 428.198C81.1036 433.537 98.178 435.139 115.252 432.47C132.861 429.8 149.401 419.656 152.603 400.969C156.871 375.341 142.465 360.925 118.454 354.518C110.984 352.383 102.98 350.247 95.5101 348.111C91.7751 347.044 89.6408 345.442 88.0401 343.306C84.305 337.433 92.3087 334.764 96.5773 335.831C110.984 338.501 124.857 343.306 137.663 350.781H138.196H138.73H139.263C139.263 350.781 139.263 350.781 139.797 350.247L154.737 319.28C154.737 318.746 154.737 318.746 154.737 318.212C154.737 317.678 154.204 317.678 154.204 317.144C136.062 307 116.32 302.195 95.5101 302.729C70.9656 303.263 45.8875 315.009 44.8204 342.238C43.2196 376.409 76.3014 380.146 100.312 386.553C105.115 388.155 113.118 391.358 109.917 397.231C106.715 403.638 93.9094 400.969 88.5737 399.367C75.2342 395.63 63.4956 389.757 52.2904 381.748C51.7569 381.214 51.7569 381.214 51.2233 382.282L46.4211 392.426" stroke="#A08EAF" stroke-width="2"/>
<path d="M287.598 331.56C287.598 332.094 287.598 332.094 287.598 331.56ZM287.598 331.56C288.131 332.094 288.131 332.094 288.131 332.094C288.131 332.094 288.131 332.094 288.665 332.094C288.665 332.094 288.665 332.094 289.199 332.094L329.217 319.814C329.217 319.814 329.75 319.814 329.75 319.28V318.746V179.929C329.75 179.929 329.75 179.929 329.75 179.395C329.75 179.395 329.75 179.395 329.75 178.861C329.75 178.861 329.75 178.861 329.217 178.861C329.217 178.861 329.217 178.861 328.683 178.861H288.665H288.131V179.395V331.56H287.598Z" stroke="#A08EAF" stroke-width="2"/>
<path d="M515.435 307C521.304 312.873 528.241 316.077 536.245 316.61C562.39 318.746 581.599 302.195 584.8 276.567C586.934 260.016 584.8 241.863 573.595 228.515C564.524 217.837 552.252 213.031 536.245 214.099C528.241 214.633 520.771 217.837 515.435 223.71C514.902 224.243 514.368 224.243 514.368 223.176V180.463C514.368 179.929 514.368 179.929 513.834 179.929L513.301 179.395H473.283H472.749V179.929V313.941C472.749 314.475 472.749 314.475 473.283 314.475L473.816 315.009H513.301C513.301 315.009 513.301 315.009 513.834 315.009C513.834 315.009 513.834 315.009 514.368 315.009C514.368 315.009 514.368 315.009 514.368 314.475C514.368 313.941 514.368 314.475 514.368 313.941V306.466C514.368 306.466 514.902 306.466 515.435 307Z" stroke="#A08EAF" stroke-width="2"/>
<path d="M201.158 237.057C207.028 224.244 220.901 218.904 233.706 223.71C241.177 226.913 247.579 231.718 252.382 238.659C252.382 238.659 252.382 238.659 252.915 239.193H253.449H253.982C253.982 239.193 254.516 239.193 254.516 238.659L277.993 210.896C277.993 210.362 278.527 210.362 278.527 209.828C278.527 209.294 278.527 209.294 277.993 208.76C259.852 190.073 232.639 182.064 207.028 187.937C177.147 194.344 155.804 217.837 155.271 248.803C154.737 280.838 172.879 306.466 203.826 315.009C231.039 322.483 259.318 312.339 278.527 292.05C279.061 291.517 279.061 291.517 278.527 290.983L255.05 265.889C255.05 265.889 255.05 265.889 254.516 265.889C253.982 265.889 254.516 265.889 253.982 265.889C253.982 265.889 253.982 265.889 253.449 265.889C253.449 265.889 253.449 265.889 252.915 265.889C247.579 271.762 241.177 275.499 233.706 278.703C219.833 283.508 205.961 277.101 201.158 263.753C197.423 254.143 197.423 245.6 201.158 237.057Z" stroke="#A08EAF" stroke-width="2"/>
<path d="M411.388 303.797V314.475C411.388 315.009 411.921 315.543 412.455 315.543H452.473C453.007 315.543 453.007 315.543 453.007 315.009V215.701V215.167H452.473H411.921C411.921 215.167 411.921 215.167 411.388 215.167C411.388 215.167 411.388 215.167 411.388 215.701C411.388 232.252 411.388 248.27 411.388 263.219C411.388 266.957 410.854 270.16 409.253 273.363C407.119 278.703 400.716 281.906 395.38 279.77C388.977 276.567 388.444 270.16 388.444 264.287C388.444 249.871 387.91 233.854 388.444 215.701C388.444 215.167 387.91 214.633 387.377 214.633H347.892H347.358V215.167C347.358 235.456 347.358 255.744 347.358 276.567C347.358 282.44 347.892 288.847 350.026 294.186C356.429 310.203 368.168 317.678 385.776 316.61C395.914 316.077 404.451 311.271 410.854 302.729C410.854 302.729 411.388 302.729 411.388 303.797Z" stroke="#A08EAF" stroke-width="2"/>
<path d="M671.24 364.129H692.583C693.116 364.129 693.65 363.595 693.65 363.061V337.967C693.65 337.967 693.65 337.967 693.65 337.433C693.65 337.433 693.65 337.433 693.116 337.433H671.24C671.24 337.433 671.24 337.433 670.706 337.433C670.706 337.433 670.706 337.433 670.706 336.899V310.737C670.706 310.203 670.172 309.67 669.639 309.67H641.893C641.359 309.67 640.292 310.203 640.292 310.737C637.624 315.009 634.423 318.212 630.154 320.882C629.621 321.416 629.621 321.416 629.621 322.483V337.433C629.621 337.967 629.621 337.967 629.087 337.967H616.815C616.281 337.967 615.748 338.501 615.748 339.035V363.061C615.748 363.595 616.281 364.129 616.815 364.129H628.553C629.087 364.129 629.087 364.129 629.087 364.663C629.087 373.205 629.087 381.748 629.087 390.29C628.553 400.969 629.621 408.977 631.221 413.249C637.091 428.198 650.43 434.071 665.904 434.605C677.109 434.605 686.713 433.003 694.717 429.266C695.25 429.266 695.25 428.732 695.784 428.732C696.318 428.198 695.784 428.198 695.784 427.664L689.381 400.969V400.435C689.381 400.435 689.381 400.435 688.848 399.901H688.314H687.78C685.646 400.435 684.045 401.503 681.911 402.037C675.508 403.638 670.706 400.969 670.706 394.028C670.706 383.883 670.706 374.273 670.706 365.73C670.172 364.129 670.172 364.129 671.24 364.129Z" stroke="#A08EAF" stroke-width="2"/>
<path d="M226.236 421.257V431.936C226.236 432.47 226.77 433.003 227.304 433.003H267.322H267.855V432.47V318.746C267.855 318.746 267.855 318.746 267.855 318.212C267.855 318.212 267.855 318.212 267.322 318.212C267.322 318.212 267.322 318.212 266.788 318.212C266.788 318.212 266.788 318.212 266.255 318.212C253.982 326.221 240.643 331.026 226.77 331.56C226.236 331.56 225.703 332.094 225.703 332.628C225.703 349.713 225.703 365.73 225.703 381.214C225.703 384.951 225.169 388.155 223.569 391.358C220.901 397.231 213.431 399.901 208.095 395.63C203.293 391.892 203.293 385.485 203.293 379.612C203.293 365.197 203.293 349.713 203.293 333.162C203.293 332.628 202.759 332.094 202.226 332.094H162.207C162.207 351.849 162.207 371.603 162.207 391.892C162.207 403.104 163.808 412.181 170.211 420.723C178.215 430.868 189.953 434.071 202.759 432.47C212.363 431.402 219.834 427.13 225.703 419.656C226.236 420.19 226.236 420.19 226.236 421.257Z" stroke="#A08EAF" stroke-width="2"/>
<path d="M328.683 344.908V328.89C328.683 328.89 328.683 328.89 328.683 328.357C328.683 328.357 328.683 328.357 328.15 328.357C328.15 328.357 328.15 328.357 327.616 328.357L288.131 340.637C288.131 340.637 287.598 340.637 287.598 341.17V341.704V431.936C287.598 431.936 287.598 432.47 288.131 432.47L288.665 433.003H328.683H329.217V432.47C329.217 415.918 329.217 399.367 329.217 382.282C329.217 364.129 353.228 361.993 353.228 380.68C353.228 396.697 353.228 413.783 353.228 431.936V432.47C353.228 432.47 353.228 433.003 353.761 433.003C353.761 433.003 354.295 433.003 354.295 433.537H354.829H394.313C394.847 433.537 395.38 433.004 395.38 432.47C395.38 400.435 395.38 378.01 395.38 365.197C395.38 359.324 393.246 353.45 390.045 347.044C384.175 336.899 373.504 331.56 361.765 331.026C348.426 330.492 337.754 335.297 330.284 345.442C329.217 345.442 328.683 345.442 328.683 344.908Z" stroke="#A08EAF" stroke-width="2"/>
<path d="M447.137 361.993C447.137 361.459 446.604 361.459 446.604 360.925C446.604 360.391 446.604 360.391 446.604 359.857C446.604 359.323 447.137 359.323 447.137 358.79C447.137 358.256 447.671 358.256 448.204 358.256C457.809 355.586 475.417 363.595 484.488 368.4H485.021H485.555C485.555 368.4 486.088 368.4 486.088 367.866L486.622 367.332L499.428 343.306C499.428 342.772 499.428 342.772 499.428 342.238C499.428 341.704 498.894 341.704 498.894 341.704C483.42 333.162 466.88 328.89 448.738 329.424C428.462 330.492 409.253 341.17 408.72 363.595C408.186 389.757 436.999 393.494 455.674 398.833C457.275 399.367 458.342 400.435 458.876 401.503C458.876 402.036 459.409 402.037 459.409 402.57C459.409 403.104 459.409 403.104 459.409 403.638C459.409 404.172 458.876 404.172 458.876 404.172C458.342 404.172 458.342 404.706 457.809 404.706C443.936 406.308 429.529 400.435 417.79 392.96C417.79 392.96 417.79 392.96 417.257 392.96C416.723 392.96 417.257 392.96 416.723 392.96C416.19 392.96 416.723 392.96 416.19 392.96C415.656 392.96 416.19 392.96 416.19 393.494L404.451 417.52C403.917 418.588 403.917 419.122 404.985 419.656C423.66 431.402 443.936 434.605 465.279 431.936C480.219 429.8 494.625 420.723 497.293 405.24C502.629 374.273 471.682 370.002 450.872 363.595C449.271 364.129 447.671 363.595 447.137 361.993Z" stroke="#A08EAF" stroke-width="2"/>
<path d="M547.45 391.892H610.412C610.945 391.892 610.945 391.892 610.945 391.358C611.479 384.951 611.479 379.078 609.878 372.671C604.009 341.704 581.065 328.89 551.185 330.492C525.039 332.094 505.831 350.781 504.763 376.943C504.23 383.35 504.763 388.689 505.297 392.96C509.566 418.054 528.774 431.402 552.785 433.004C572.528 434.071 590.136 429.8 604.009 415.384L604.542 414.85C604.542 414.85 604.542 414.317 604.009 414.317L583.733 394.562C583.199 394.028 583.199 394.028 582.666 394.028C582.132 394.028 581.599 394.028 581.599 394.562C571.461 404.172 554.386 407.376 546.916 392.426C546.916 392.426 546.916 392.426 546.916 391.892C546.916 392.426 546.916 392.426 547.45 391.892ZM547.45 391.892C547.45 392.426 547.45 392.426 547.45 391.892Z" stroke="#A08EAF" stroke-width="2"/>
<path d="M529.308 284.576C533.043 284.576 536.778 282.44 539.98 278.703C542.647 274.965 544.248 270.16 544.248 264.821C544.248 259.482 542.647 254.676 539.98 250.939C537.312 247.202 533.577 245.066 529.308 245.066C525.039 245.066 521.838 247.202 518.637 250.939C515.969 254.676 514.368 259.482 514.368 264.821C514.368 270.16 515.969 274.965 518.637 278.703C521.304 282.44 525.039 284.576 529.308 284.576Z" stroke="#A08EAF" stroke-width="2"/>
<path d="M546.916 372.671H569.86C569.86 372.671 569.86 372.671 570.393 372.671C570.393 372.671 570.393 372.671 570.393 372.137C570.393 368.934 569.326 365.73 566.658 363.061C563.99 360.391 561.323 359.323 558.121 359.323C556.52 359.323 554.92 359.857 553.319 360.391C551.718 360.925 550.651 361.993 549.584 363.061C548.517 364.129 547.45 365.73 546.916 367.332C546.382 368.934 545.849 370.536 545.849 372.137L546.916 372.671ZM546.916 372.671C546.382 372.137 546.382 372.137 546.916 372.671Z" stroke="#A08EAF" stroke-width="2"/>
<path d="M287.598 331.56V180.463V179.929H288.131H328.15C328.15 179.929 328.15 179.929 328.683 179.929C328.683 179.929 328.683 179.929 329.217 179.929C329.217 179.929 329.217 179.929 329.217 180.463C329.217 180.997 329.217 180.463 329.217 180.997V319.814V320.348C329.217 320.348 329.217 320.348 328.683 320.882L288.665 333.162C288.665 333.162 288.665 333.162 288.131 333.162C288.131 333.162 288.131 333.162 287.598 333.162C288.131 332.628 288.131 332.628 287.598 331.56C288.131 332.094 287.598 332.094 287.598 331.56Z" fill="#432062"/>
<path d="M514.368 307.534V315.009C514.368 315.009 514.368 315.009 514.368 315.543C514.368 316.077 514.368 315.543 514.368 316.077C514.368 316.077 514.368 316.077 513.834 316.077C513.834 316.077 513.834 316.077 513.301 316.077H473.816C473.283 316.077 473.283 316.077 473.283 315.543L472.749 315.009V181.53V180.997H473.283H513.301C513.834 180.997 513.834 180.997 513.834 181.53L514.368 182.064V224.777C514.368 225.845 514.902 225.845 515.435 225.311C520.771 219.438 528.241 216.235 536.245 215.701C552.252 214.633 564.524 219.438 573.595 230.117C584.8 243.464 586.934 261.617 584.8 278.169C582.132 303.797 562.39 320.882 536.245 318.212C528.241 317.678 521.304 314.475 515.435 308.602C514.902 306.466 514.368 306.466 514.368 307.534ZM529.308 284.576C533.043 284.576 536.778 282.44 539.98 278.703C542.648 274.965 544.248 270.16 544.248 264.821C544.248 259.482 542.648 254.677 539.98 250.939C537.312 247.202 533.577 245.066 529.308 245.066C525.04 245.066 521.838 247.202 518.637 250.939C515.969 254.677 514.368 259.482 514.368 264.821C514.368 270.16 515.969 274.965 518.637 278.703C521.304 282.44 525.04 284.576 529.308 284.576Z" fill="#432062"/>
<path d="M201.158 237.057C197.423 245.6 197.423 254.143 200.625 263.219C205.427 276.567 219.834 282.974 233.173 278.169C240.643 275.499 247.046 271.228 252.382 265.355C252.382 265.355 252.382 265.355 252.915 265.355C253.449 265.355 252.915 265.355 253.449 265.355C253.449 265.355 253.449 265.355 253.983 265.355C253.983 265.355 253.983 265.355 254.516 265.355L277.993 290.983C278.527 291.517 278.527 291.517 277.993 292.05C258.785 312.339 230.505 322.483 203.293 315.009C172.345 306.466 154.204 280.838 154.737 248.803C155.271 217.837 176.614 194.344 206.494 187.937C232.106 182.064 259.318 190.073 277.46 208.76C277.993 209.294 277.993 209.294 277.993 209.828C277.993 210.362 277.993 210.362 277.46 210.896L253.983 238.659C253.983 238.659 253.983 238.659 253.449 239.193H252.915H252.382C252.382 239.193 251.848 239.193 251.848 238.659C247.046 231.718 240.643 226.913 233.173 223.71C220.901 218.904 207.028 224.777 201.158 237.057Z" fill="#432062"/>
<path d="M411.387 303.797C411.387 302.729 410.854 302.729 410.32 303.263C403.917 311.805 395.914 316.61 385.242 317.144C367.634 318.212 355.362 310.737 349.493 294.72C347.358 289.381 346.825 282.974 346.825 277.101C346.825 256.278 346.825 235.99 346.825 215.701V215.167H347.358H386.843C387.377 215.167 387.91 215.701 387.91 216.235C387.91 234.388 387.91 250.405 387.91 264.821C387.91 270.694 388.444 277.101 394.847 280.304C400.182 282.974 406.585 279.237 408.72 273.897C410.32 270.694 410.854 267.49 410.854 263.753C410.854 248.804 410.854 232.786 410.854 216.235C410.854 216.235 410.854 216.235 410.854 215.701C410.854 215.701 410.854 215.701 411.387 215.701H451.939H452.473V216.235V315.009C452.473 315.543 452.473 315.543 451.939 315.543H411.921C411.387 315.543 410.854 315.009 410.854 314.475L411.387 303.797Z" fill="#432062"/>
<path d="M64.5627 428.198C54.4247 424.995 45.3539 420.19 36.2831 413.783C35.7495 413.249 35.7495 412.715 35.7495 412.181L45.8875 391.892L50.6897 381.748C51.2232 381.214 51.2232 381.214 51.7568 381.214C62.4283 389.223 74.7006 395.096 88.04 398.833C93.3758 400.435 106.182 403.104 109.383 396.697C112.051 390.824 104.047 387.087 99.7787 386.019C75.7678 379.612 42.686 375.875 44.2867 341.704C45.8875 314.475 70.432 303.263 94.9765 302.195C115.786 301.661 135.528 306.466 153.67 316.61C154.204 316.61 154.204 317.144 154.204 317.678C154.204 318.212 154.204 318.212 154.204 318.746L139.263 349.713C139.263 349.713 139.263 350.247 138.73 350.247C138.73 350.247 138.73 350.247 138.196 350.247H137.663H137.129C124.323 342.772 110.45 337.967 96.0437 335.297C91.7751 334.764 83.7714 336.899 87.5064 342.772C89.1072 344.908 91.2415 346.51 94.9765 347.577C102.447 349.713 110.45 352.383 117.92 353.984C141.931 360.391 156.338 374.807 152.069 400.435C148.868 419.122 132.327 429.266 114.719 431.936C98.178 435.139 81.6371 433.537 64.5627 428.198Z" fill="#432062"/>
<path d="M670.172 365.196C670.172 373.739 670.172 383.349 670.172 393.494C670.172 400.435 675.508 403.104 681.377 401.503C683.512 400.969 685.112 400.435 687.247 399.367H687.78H688.314C688.314 399.367 688.314 399.367 688.847 399.901C688.847 399.901 688.847 399.901 688.847 400.435L695.25 427.13C695.25 427.664 695.25 427.664 695.25 428.198C695.25 428.732 694.717 428.732 694.183 428.732C686.18 432.47 676.575 434.071 665.37 434.071C649.896 434.071 636.023 427.664 630.688 412.715C629.087 407.91 628.02 400.435 628.553 389.756C628.553 381.214 628.553 372.671 628.553 364.129C628.553 363.595 628.553 363.595 628.02 363.595H616.281C615.747 363.595 615.214 363.061 615.214 362.527V337.967C615.214 337.433 615.747 336.899 616.281 336.899H628.553C629.087 336.899 629.087 336.899 629.087 336.365V321.416C629.087 320.882 629.62 320.348 629.62 319.814C633.889 317.678 637.624 313.941 639.758 309.67C640.292 309.136 640.826 308.602 641.359 308.602H669.105C669.639 308.602 670.172 309.136 670.172 309.67V335.831C670.172 335.831 670.172 335.831 670.172 336.365C670.172 336.365 670.172 336.365 670.706 336.365H692.582C692.582 336.365 692.582 336.365 693.116 336.365C693.116 336.365 693.116 336.365 693.116 336.899V361.993C693.116 362.527 692.582 363.061 692.049 363.061H670.706C670.172 364.129 670.172 364.129 670.172 365.196Z" fill="#432062"/>
<path d="M225.703 420.724C219.834 428.198 212.363 432.47 202.759 433.537C189.953 435.139 178.215 431.936 170.211 421.791C163.808 413.249 162.207 404.172 162.207 392.96C162.207 372.671 162.207 352.383 162.207 333.162H202.226C202.759 333.162 203.293 333.696 203.293 334.23C203.293 350.781 203.293 366.264 203.293 380.68C203.293 386.553 203.293 392.96 208.095 396.697C213.964 400.969 220.901 398.299 223.569 392.426C225.169 389.223 225.703 386.019 225.703 382.282C225.703 366.798 225.703 350.247 225.703 333.696C225.703 333.162 226.236 332.628 226.77 332.628C240.643 332.094 253.982 327.289 266.255 319.28C266.255 319.28 266.255 319.28 266.788 319.28C266.788 319.28 266.788 319.28 267.322 319.28C267.322 319.28 267.322 319.28 267.855 319.28C267.855 319.28 267.855 319.28 267.855 319.814V433.004V433.537H267.322H227.304C226.77 433.537 226.236 433.004 226.236 432.47V421.791C226.236 420.19 226.236 420.19 225.703 420.724Z" fill="#432062"/>
<path d="M328.683 344.908C328.683 345.442 329.217 345.442 328.683 344.908C336.687 334.763 347.358 329.958 360.698 330.492C372.436 331.026 383.108 336.365 388.977 346.51C392.712 352.383 394.313 358.79 394.313 364.663C394.847 376.943 394.847 399.367 394.313 431.936C394.313 432.47 393.78 433.003 393.246 433.003H353.761H353.228C353.228 433.003 352.694 433.003 352.694 432.47C352.694 432.47 352.694 431.936 352.161 431.936V431.402C352.161 413.249 352.161 396.163 352.161 380.146C352.161 361.993 328.15 363.595 328.15 381.748C328.15 398.833 328.15 415.384 328.15 431.936V432.47H327.616H288.131C288.131 432.47 287.598 432.47 287.598 431.936L287.064 431.402V341.17V340.637L287.598 340.103L327.616 327.823C327.616 327.823 327.616 327.823 328.15 327.823C328.15 327.823 328.15 327.823 328.683 327.823C328.683 327.823 328.683 327.823 328.683 328.357V344.908Z" fill="#432062"/>
<path d="M447.137 361.993C448.204 363.595 449.271 364.129 450.872 364.663C471.682 371.07 503.163 375.341 497.293 406.308C494.625 421.791 479.685 430.868 465.279 433.003C443.936 435.673 423.66 432.47 404.985 420.723C403.917 420.19 403.917 419.656 404.451 418.588L416.19 394.562C416.19 394.562 416.19 394.562 416.19 394.028C416.19 394.028 416.19 394.028 416.723 394.028C416.723 394.028 416.723 394.028 417.257 394.028C417.257 394.028 417.257 394.028 417.79 394.028C430.063 401.503 443.936 407.376 457.809 405.774C458.342 405.774 458.342 405.774 458.876 405.24C459.409 405.24 459.409 404.706 459.409 404.706C459.409 404.172 459.409 404.172 459.409 403.638C459.409 403.104 459.409 403.104 458.876 402.57C458.342 401.503 457.275 400.435 455.674 399.901C437.533 394.562 408.72 390.29 408.72 364.663C408.72 341.704 428.462 331.026 448.738 330.492C466.88 329.958 483.42 333.696 498.894 342.772C499.428 342.772 499.428 343.306 499.428 343.306C499.428 343.84 499.428 343.84 499.428 344.374L486.088 368.4C486.088 368.4 486.088 368.934 485.555 368.934C485.555 368.934 485.021 368.934 485.021 369.468H484.488H483.954C474.883 364.663 457.275 356.654 447.671 359.323C447.137 359.323 447.137 359.857 446.604 359.857C446.07 360.391 446.07 360.391 446.07 360.925C446.07 361.459 446.07 361.459 446.07 361.993C446.07 362.527 446.604 361.993 447.137 361.993Z" fill="#432062"/>
<path d="M547.45 391.892C546.916 391.892 546.916 392.426 546.916 392.426C546.916 392.426 546.916 392.426 546.916 392.96C546.916 393.494 546.916 392.96 546.916 393.494C554.386 407.91 571.461 405.24 581.599 395.63C582.132 395.096 582.132 395.096 582.666 395.096C583.199 395.096 583.733 395.096 583.733 395.63L604.009 415.384L604.542 415.918C604.542 415.918 604.542 416.452 604.009 416.452C590.669 430.868 572.528 435.139 552.785 434.071C528.774 432.47 509.566 419.122 505.297 394.028C504.763 389.757 504.23 384.417 504.763 378.01C506.364 351.849 525.573 333.162 551.185 331.56C581.065 329.424 604.009 342.238 609.878 373.739C610.945 379.612 611.479 386.019 610.945 392.426C610.945 392.96 610.945 392.96 610.412 392.96L547.45 391.892ZM546.916 372.671H569.86C569.86 372.671 569.86 372.671 570.393 372.671C570.393 372.671 570.393 372.671 570.393 372.137C570.393 368.934 569.326 365.73 566.658 363.061C563.991 360.391 561.323 359.323 558.121 359.323C556.52 359.323 554.92 359.857 553.319 360.391C551.718 360.925 550.651 361.993 549.584 363.061C548.517 364.129 547.45 365.73 546.916 367.332C546.382 368.934 545.849 370.536 545.849 372.137L546.916 372.671Z" fill="#432062"/>
</g>
<defs>
<clipPath id="clip0_80416_383">
<rect width="731" height="614" fill="white"/>
</clipPath>
</defs>
</svg>
